<?xml version="1.0" standalone="no"?><!-- Generator: Gravit.io --><svg xmlns="http://www.w3.org/2000/svg" xmlns:xlink="http://www.w3.org/1999/xlink" style="isolation:isolate" viewBox="0 0 115.6 23.9" width="115.6" height="23.9"><defs><clipPath id="_clipPath_4Yq7AAnA9Fu0MckehjD3BAYXvGdxVX68"><rect width="115.6" height="23.9"/></clipPath></defs><g clip-path="url(#_clipPath_4Yq7AAnA9Fu0MckehjD3BAYXvGdxVX68)"><g id="Group"><g id="Layer_1"><g id="Group"><path d=" M 10.356 23.9 C 7.315 23.9 5.072 22.759 2.791 20.365 C 1.232 18.73 -0.022 15.574 -0.022 12.078 C -0.022 7.971 1.727 4.321 4.768 2.04 C 6.555 0.709 8.608 -0.014 10.737 -0.014 C 12.904 -0.014 14.919 0.557 16.972 1.774 L 15.299 6.716 C 13.778 5.917 12.409 5.499 10.966 5.499 C 7.962 5.499 5.871 8.009 5.871 12.038 C 5.871 16.03 8.114 18.653 11.118 18.653 C 12.828 18.653 14.349 18.046 16.098 16.829 L 17.201 21.544 C 15.185 23.14 13.017 23.9 10.356 23.9 Z " fill="rgb(137,133,129)"/><path d=" M 42.445 16.943 C 42.445 21.088 39.29 23.9 34.309 23.9 C 30.926 23.9 28.302 22.341 27.238 19.832 L 30.811 16.602 C 31.99 18.35 33.245 19.225 34.576 19.225 C 36.097 19.225 37.009 18.389 37.009 17.096 C 37.009 15.69 35.982 15.461 34.538 14.891 L 33.017 14.284 C 29.634 12.952 27.77 10.292 27.77 6.946 C 27.77 2.991 30.85 0.178 35.45 0.178 C 38.378 0.178 40.583 1.28 41.875 2.078 L 40.088 7.021 C 38.301 5.841 36.742 5.233 35.449 5.233 C 33.776 5.233 32.902 5.841 32.902 6.906 C 32.902 7.894 33.662 8.351 35.145 8.883 L 36.704 9.454 C 40.582 10.861 42.445 13.332 42.445 16.943 Z " fill="rgb(137,133,129)"/><path d=" M 58.194 18.806 L 56.635 23.368 L 50.894 23.368 L 59.22 0.518 L 64.049 0.518 L 72.376 23.368 L 66.635 23.368 L 65.076 18.806 L 58.194 18.806 Z  M 63.782 15.043 L 63.174 13.18 C 63.022 12.725 62.489 10.862 61.615 7.667 C 60.779 10.898 60.284 12.762 60.132 13.218 L 59.486 15.043 L 63.782 15.043 Z " fill="rgb(137,133,129)"/><path d=" M 83.293 23.369 L 83.293 0.519 L 88.805 0.519 L 88.805 23.369 L 83.293 23.369 Z " fill="rgb(137,133,129)"/><path d=" M 102.406 23.369 L 102.406 0.519 L 107.996 0.519 L 107.996 18.806 L 115.6 18.806 L 115.6 23.368 L 102.406 23.368 L 102.406 23.369 Z " fill="rgb(137,133,129)"/></g></g></g></g></svg>